<?xml version="1.0" encoding="utf-8"?>
<!-- Generator: Adobe Illustrator 25.2.1, SVG Export Plug-In . SVG Version: 6.00 Build 0)  -->
<svg version="1.1" id="Layer_1" xmlns="http://www.w3.org/2000/svg" xmlns:xlink="http://www.w3.org/1999/xlink" x="0px" y="0px"
	 viewBox="0 0 599.4 205.4" style="enable-background:new 0 0 599.4 205.4;" xml:space="preserve">
<style type="text/css">
	.st0{fill:#00297A;}
</style>
<g id="Layer_1_1_">
</g>
<g id="Logo">
	<g>
		<path class="st0" d="M78,53C36.9,53,3.4,86.5,3.4,127.6s33.5,74.6,74.6,74.6s74.6-33.5,74.6-74.6S119.1,53,78,53z M78,164.8
			c-20.8,0-37.1-16.8-37.1-37.1S57.7,90.6,78,90.6s37.1,16.8,37.1,37.1S98.4,164.8,78,164.8z"/>
		<path class="st0" d="M209,152.8c0-6,7.2-8.8,11.2-4.8c18.8,19.2,49.5,51.5,49.5,51.9c0.4,0.4,0.8,1.2,2.8,1.6
			c0.8,0.4,2,0.4,3.2,0.4h33.5c6,0,8-7.2,5.2-10.4L258.5,134l-2.8-3.2c-6.4-7.6-5.6-10.4,1.6-18.4l44.3-49.1
			c2.8-3.6,1.2-10.4-5.2-10.4h-30.3c-1.2,0-2,0-2.8,0.4c-2,0.4-2.4,1.2-2.8,1.6c0,0-24.8,26.3-39.5,42.7c-4,4.4-11.6,1.6-11.6-4.4
			V8.7c0-4.4-3.6-6-6.4-6h-24.8c-4.4,0-6.4,2.8-6.4,5.6v187.6c0,4.4,3.6,5.6,6.4,5.6h24.4c4,0,6.4-2.8,6.4-5.6v-2L209,152.8
			L209,152.8z"/>
		<path class="st0" d="M412.1,195.1l-2.8-25.1c-0.4-3.6-3.6-5.6-6.8-5.2c-2,0.4-4,0.4-5.6,0.4c-20,0-35.9-15.6-37.1-35.1
			c0-0.8,0-1.2,0-2V97.7c0-4,2.8-7.2,6.8-7.2h33.5c2.4,0,6-2,6-6.4V60.6c0-4.4-2.8-7.2-5.6-7.2H367c-4,0-7.2-2.8-7.2-6.8V9.1
			c0-2.4-1.6-6-6.4-6h-24.7c-3.2,0-6,2-6,5.6c0,0,0,120.6,0,121.4c1.2,40.3,33.9,72.7,74.6,72.7c3.2,0,6.8-0.4,10-0.8
			C410.1,201.5,412.5,198.3,412.1,195.1z"/>
		<path class="st0" d="M591.8,164c-21.2,0-24.4-7.6-24.4-35.9c0,0,0,0,0-0.4V59.8c0-2.4-1.6-6.4-6.4-6.4h-24.8
			c-3.2,0-6.4,2.4-6.4,6.4V63c-10.8-6-23.6-9.6-36.7-9.6c-41.1,0-74.6,33.5-74.6,74.6s33.5,74.6,74.6,74.6c18.4,0,35.5-6.8,48.3-18
			c7.2,10.8,18.4,17.6,35.9,18c3.2,0,18.8,0.4,18.8-6.8v-26.3C596.2,166.4,594.2,164,591.8,164z M492.8,164.8
			c-20.8,0-37.1-16.8-37.1-37.1c0-20.8,16.8-37.1,37.1-37.1c20.8,0,37.1,16.8,37.1,37.1C530.3,148,513.5,164.8,492.8,164.8z"/>
	</g>
</g>
</svg>
